<svg width="302" height="168" viewBox="0 0 302 168" fill="none" xmlns="http://www.w3.org/2000/svg">
<path d="M111 30H19C19 25 24 17 31.5 17C33.5 4.60001 37.6667 1.16667 39.5 1C50 0.833338 73.7 0.600005 84.5 1C98 1.50001 96 10.5 99 17C107.8 17 110.667 25.6667 111 30Z" fill="#5B5112" stroke="#5B5112"/>
<path d="M106 36.5H23.5C26.8333 59.8333 33.9 109 35.5 119C45 120 60.5 129.5 65 132.5C74 115.5 89.5 108.5 96.5 106.5C98.5 103 105 48 106 36.5Z" fill="#C69C2D" stroke="#C69C2D"/>
<path d="M130 111.5C80 98.3 61.8333 137 59 158C100.5 118.5 101 128 112.5 126.5C74.5 144 71.5 154 65 162.5C122.5 172 128 123.5 130 111.5Z" fill="#056539" stroke="#056539"/>
<path d="M61 134.5L55.5 146.5C45 138.5 29.5 134.5 23.5 134.5C35.5 139 49.5 148.5 55.5 152.5C52.5 155.5 53 159 53 162.5C14.5 161 6.5 131 1.5 120C32.3 117.2 54 128.5 61 134.5Z" fill="#056539" stroke="#056539"/>
<path fill-rule="evenodd" clip-rule="evenodd" d="M56.7935 96.1397C61.588 99.7614 69.0731 97.9338 73.5118 92.0577C77.9505 86.1815 77.6621 78.482 72.8675 74.8603C68.073 71.2386 60.5879 73.0662 56.1492 78.9423C51.7105 84.8185 51.9989 92.518 56.7935 96.1397ZM57.2045 95.2033C58.4755 94.8122 61.3694 93.0328 62.7773 89.0439C63.0351 88.3136 63.2802 87.558 63.5285 86.793C64.9752 82.3352 66.5266 77.5546 71.2831 75.5519C68.8349 78.8904 67.5689 82.5666 66.7162 85.0428C66.4451 85.8298 66.2158 86.4956 66.0036 86.9908C65.1237 89.0439 63.0706 93.7368 57.2045 95.2033Z" fill="white"/>
<path d="M184.016 87L168.912 67.16V87H157.968V42.072H168.912V61.784L183.888 42.072H196.752L179.344 64.088L197.392 87H184.016ZM218.849 87.512C215.35 87.512 212.193 86.7653 209.377 85.272C206.604 83.7787 204.406 81.6453 202.785 78.872C201.206 76.0987 200.417 72.856 200.417 69.144C200.417 65.4747 201.228 62.2533 202.849 59.48C204.47 56.664 206.689 54.5093 209.505 53.016C212.321 51.5227 215.478 50.776 218.977 50.776C222.476 50.776 225.633 51.5227 228.449 53.016C231.265 54.5093 233.484 56.664 235.105 59.48C236.726 62.2533 237.537 65.4747 237.537 69.144C237.537 72.8133 236.705 76.056 235.041 78.872C233.42 81.6453 231.18 83.7787 228.321 85.272C225.505 86.7653 222.348 87.512 218.849 87.512ZM218.849 78.04C220.94 78.04 222.71 77.272 224.161 75.736C225.654 74.2 226.401 72.0027 226.401 69.144C226.401 66.2853 225.676 64.088 224.225 62.552C222.817 61.016 221.068 60.248 218.977 60.248C216.844 60.248 215.073 61.016 213.665 62.552C212.257 64.0453 211.553 66.2427 211.553 69.144C211.553 72.0027 212.236 74.2 213.601 75.736C215.009 77.272 216.758 78.04 218.849 78.04ZM254.287 56.344C255.354 54.68 256.826 53.336 258.703 52.312C260.58 51.288 262.778 50.776 265.295 50.776C268.239 50.776 270.906 51.5227 273.295 53.016C275.684 54.5093 277.562 56.6427 278.927 59.416C280.335 62.1893 281.039 65.4107 281.039 69.08C281.039 72.7493 280.335 75.992 278.927 78.808C277.562 81.5813 275.684 83.736 273.295 85.272C270.906 86.7653 268.239 87.512 265.295 87.512C262.82 87.512 260.623 87 258.703 85.976C256.826 84.952 255.354 83.6293 254.287 82.008V104.024H243.343V51.288H254.287V56.344ZM269.903 69.08C269.903 66.3493 269.135 64.216 267.599 62.68C266.106 61.1013 264.25 60.312 262.031 60.312C259.855 60.312 257.999 61.1013 256.463 62.68C254.97 64.2587 254.223 66.4133 254.223 69.144C254.223 71.8747 254.97 74.0293 256.463 75.608C257.999 77.1867 259.855 77.976 262.031 77.976C264.207 77.976 266.063 77.1867 267.599 75.608C269.135 73.9867 269.903 71.8107 269.903 69.08ZM292.285 47.576C290.365 47.576 288.786 47.0213 287.549 45.912C286.354 44.76 285.757 43.352 285.757 41.688C285.757 39.9813 286.354 38.5733 287.549 37.464C288.786 36.312 290.365 35.736 292.285 35.736C294.162 35.736 295.698 36.312 296.893 37.464C298.13 38.5733 298.749 39.9813 298.749 41.688C298.749 43.352 298.13 44.76 296.893 45.912C295.698 47.0213 294.162 47.576 292.285 47.576ZM297.725 51.288V87H286.781V51.288H297.725Z" fill="#056539"/>
<path d="M275.08 105.904C270.984 105.904 267.699 107.269 265.224 110C262.749 112.688 261.512 116.4 261.512 121.136V142H272.392V122.608C272.392 120.219 273.011 118.363 274.248 117.04C275.485 115.717 277.149 115.056 279.24 115.056C281.331 115.056 282.995 115.717 284.232 117.04C285.469 118.363 286.088 120.219 286.088 122.608V142H297.032V94.64H286.088V111.088C284.979 109.509 283.464 108.251 281.544 107.312C279.624 106.373 277.469 105.904 275.08 105.904ZM220.243 123.568C220.243 124.592 220.307 125.659 220.435 126.768H245.203C245.032 128.987 244.328 130.693 243.091 131.888C241.811 133.04 240.254 133.616 238.419 133.616C235.688 133.616 233.79 132.464 232.723 130.16H221.075C221.672 132.507 222.76 134.619 224.339 136.496C225.875 138.373 227.816 139.845 230.163 140.912C232.51 141.979 235.134 142.512 238.035 142.512C241.534 142.512 244.648 141.765 247.379 140.272C250.11 138.779 252.243 136.645 253.779 133.872C255.315 131.099 256.083 127.856 256.083 124.144C256.083 120.432 255.336 117.189 253.843 114.416C252.307 111.643 250.174 109.509 247.443 108.016C244.712 106.523 241.576 105.776 238.035 105.776C234.579 105.776 231.507 106.501 228.819 107.952C226.131 109.403 224.04 111.472 222.547 114.16C221.011 116.848 220.243 119.984 220.243 123.568ZM231.443 120.688C231.443 118.811 232.083 117.317 233.363 116.208C234.643 115.099 236.243 114.544 238.163 114.544C239.998 114.544 241.555 115.077 242.835 116.144C244.072 117.211 244.84 118.725 245.139 120.688H231.443ZM209.03 102.576C210.949 102.576 212.528 102.021 213.765 100.912C214.96 99.76 215.557 98.352 215.557 96.688C215.557 94.9813 214.96 93.5733 213.765 92.464C212.528 91.312 210.949 90.736 209.03 90.736C207.152 90.736 205.616 91.312 204.421 92.464C203.184 93.5733 202.565 94.9813 202.565 96.688C202.565 98.352 203.184 99.76 204.421 100.912C205.616 102.021 207.152 102.576 209.03 102.576ZM203.525 146.608C203.525 151.003 204.635 154.16 206.853 156.08C209.072 158.043 212.165 159.024 216.133 159.024H220.422V149.744H217.797C216.603 149.744 215.749 149.509 215.237 149.04C214.725 148.571 214.469 147.803 214.469 146.736V106.288H203.525V146.608ZM179.401 142.512C182.9 142.512 186.057 141.765 188.873 140.272C191.646 138.779 193.844 136.645 195.465 133.872C197.044 131.099 197.833 127.856 197.833 124.144C197.833 120.475 197.022 117.253 195.401 114.48C193.78 111.664 191.561 109.509 188.745 108.016C185.929 106.523 182.772 105.776 179.273 105.776C175.774 105.776 172.617 106.523 169.801 108.016C166.985 109.509 164.766 111.664 163.145 114.48C161.524 117.253 160.713 120.475 160.713 124.144C160.713 127.813 161.545 131.056 163.209 133.872C164.83 136.645 167.07 138.779 169.929 140.272C172.745 141.765 175.902 142.512 179.401 142.512ZM179.401 133.04C177.31 133.04 175.54 132.272 174.089 130.736C172.596 129.2 171.849 127.003 171.849 124.144C171.849 121.285 172.574 119.088 174.025 117.552C175.433 116.016 177.182 115.248 179.273 115.248C181.406 115.248 183.177 116.016 184.585 117.552C185.993 119.045 186.697 121.243 186.697 124.144C186.697 127.003 186.014 129.2 184.649 130.736C183.241 132.272 181.492 133.04 179.401 133.04Z" fill="black"/>
</svg>
