<svg width="131" height="165" viewBox="0 0 131 165" fill="none" xmlns="http://www.w3.org/2000/svg">
<path d="M111 30H19C19 25 24 17 31.5 17C33.5 4.60001 37.6667 1.16667 39.5 1C50 0.833338 73.7 0.600005 84.5 1C98 1.50001 96 10.5 99 17C107.8 17 110.667 25.6667 111 30Z" fill="#5B5112" stroke="#5B5112"/>
<path d="M106 36.5H23.5C26.8333 59.8333 33.9 109 35.5 119C45 120 60.5 129.5 65 132.5C74 115.5 89.5 108.5 96.5 106.5C98.5 103 105 48 106 36.5Z" fill="#C69C2D" stroke="#C69C2D"/>
<path d="M130 111.5C80 98.3 61.8333 137 59 158C100.5 118.5 101 128 112.5 126.5C74.5 144 71.5 154 65 162.5C122.5 172 128 123.5 130 111.5Z" fill="#056539" stroke="#056539"/>
<path d="M61 134.5L55.5 146.5C45 138.5 29.5 134.5 23.5 134.5C35.5 139 49.5 148.5 55.5 152.5C52.5 155.5 53 159 53 162.5C14.5 161 6.5 131 1.5 120C32.3 117.2 54 128.5 61 134.5Z" fill="#056539" stroke="#056539"/>
<path fill-rule="evenodd" clip-rule="evenodd" d="M56.7934 96.1397C61.588 99.7614 69.073 97.9338 73.5118 92.0577C77.9505 86.1815 77.662 78.482 72.8675 74.8603C68.0729 71.2386 60.5879 73.0662 56.1492 78.9423C51.7104 84.8185 51.9989 92.518 56.7934 96.1397ZM57.2045 95.2033C58.4755 94.8122 61.3694 93.0328 62.7772 89.0439C63.035 88.3136 63.2802 87.5581 63.5285 86.793C64.9751 82.3352 66.5265 77.5546 71.2831 75.5519C68.8349 78.8904 67.5688 82.5666 66.7161 85.0428C66.4451 85.8298 66.2158 86.4956 66.0036 86.9908C65.1237 89.0439 63.0706 93.7368 57.2045 95.2033Z" fill="white"/>
</svg>
